<svg width="16" height="16" viewBox="0 0 16 16" fill="none" xmlns="http://www.w3.org/2000/svg">
<g id="star-svgrepo-com (2) 1" clip-path="url(#clip0_1_1823)">
<path id="XMLID_16_" d="M15.9645 6.14243C15.8789 5.87906 15.6512 5.68712 15.3772 5.64736L10.7305 4.97223L8.65238 0.761214C8.52984 0.512928 8.27695 0.355713 8.0001 0.355713C7.7232 0.355713 7.47031 0.512928 7.34781 0.761214L5.26982 4.97219L0.622944 5.64731C0.348956 5.68712 0.12128 5.87906 0.0357372 6.14238C-0.0498051 6.40575 0.0215286 6.69482 0.219818 6.88806L3.5823 10.1653L2.78822 14.7938C2.74143 15.0668 2.85359 15.3425 3.07758 15.5053C3.20429 15.5974 3.35438 15.6442 3.5052 15.6442C3.62095 15.6442 3.73719 15.6166 3.84363 15.5607L8.00005 13.3756L12.1564 15.5607C12.2635 15.617 12.3807 15.6438 12.4969 15.6442C12.8982 15.6436 13.2233 15.3182 13.2233 14.9168C13.2233 14.861 13.217 14.8065 13.205 14.7543L12.4178 10.1654L15.7803 6.88806C15.9787 6.69482 16.05 6.40575 15.9645 6.14243Z" fill="#F88808"/>
</g>
<defs>
<clipPath id="clip0_1_1823">
<rect width="16" height="16" fill="white"/>
</clipPath>
</defs>
</svg>
